<svg width="16" height="17" viewBox="0 0 16 17" xmlns="http://www.w3.org/2000/svg">
    <path d="m13.179 11.543-1.15-1.152 1.15-1.151a4.07 4.07 0 1 0-5.755-5.755l-1.15 1.152-1.152-1.15 1.152-1.152a5.697 5.697 0 1 1 8.057 8.057l-1.151 1.151h-.001zm-2.302 2.302-1.151 1.15a5.697 5.697 0 0 1-8.057-8.057l1.151-1.15L3.971 6.94l-1.15 1.15a4.07 4.07 0 1 0 5.754 5.756l1.15-1.151 1.152 1.15zm-.576-8.633 1.152 1.152-5.755 5.754-1.152-1.151 5.755-5.754z"
          fill="#000091" fill-rule="evenodd"/>
</svg>
