<svg xmlns="http://www.w3.org/2000/svg" width="36" height="20" viewBox="0 0 36 20">
    <g fill="none" fill-rule="evenodd">
        <g fill="#000091">
            <g>
                <g>
                    <g>
                        <g>
                            <path d="M.652 10.001C.37 9.514.152 8.993 0 8.451c.67-.342 1.093-1.03 1.093-1.782 0-.753-.421-1.442-1.092-1.783C.303 3.796.876 2.8 1.67 1.995c.63.41 1.438.431 2.09.055.652-.377 1.037-1.087.997-1.838 1.095-.283 2.243-.283 3.338.001-.04.752.346 1.462.998 1.838.652.376 1.46.354 2.09-.056.386.393.729.84 1.017 1.34.288.499.504 1.02.652 1.55-.67.341-1.093 1.03-1.094 1.782 0 .752.422 1.441 1.092 1.783-.301 1.09-.875 2.085-1.667 2.891-.63-.41-1.439-.431-2.09-.055-.652.376-1.037 1.086-.997 1.838-1.095.283-2.244.282-3.338-.001.04-.752-.346-1.462-.998-1.838-.652-.376-1.46-.354-2.09.056-.394-.402-.736-.852-1.017-1.34zm3.773.13c.71.41 1.245 1.068 1.5 1.848.333.03.667.032 1 0 .255-.78.79-1.437 1.5-1.846.71-.411 1.547-.545 2.35-.377.194-.272.36-.562.499-.865-.547-.612-.85-1.403-.849-2.223 0-.84.314-1.625.849-2.223-.14-.303-.307-.593-.5-.865-.802.168-1.639.034-2.349-.376-.71-.41-1.244-1.067-1.5-1.847-.332-.031-.666-.032-.999 0-.256.779-.79 1.437-1.5 1.846-.71.411-1.548.545-2.35.377-.194.272-.36.562-.5.865.548.611.85 1.403.85 2.223 0 .84-.314 1.625-.85 2.223.14.303.308.592.5.865.803-.168 1.64-.034 2.35.376zm2-1.463c-1.104 0-2-.896-2-2 0-1.105.896-2 2-2 1.105 0 2 .895 2 2 0 1.104-.895 2-2 2zm0-1.333c.369 0 .667-.299.667-.667C7.092 6.3 6.794 6 6.425 6c-.368 0-.666.299-.666.667 0 .368.298.667.666.667z"
                                  transform="translate(-605.000000, -358.000000) translate(559.000000, 304.000000) translate(29.000000, 49.000000) translate(17.000000, 5.000000) translate(22.574667, 4.332149)"/>
                        </g>
                        <path fill-rule="nonzero"
                              d="M4.444 3.182h-2.67c-.245 0-.44.2-.44.446V18.19c0 .243.199.446.44.446h12.453c.244 0 .44-.2.44-.446V3.628c0-.242-.2-.446-.44-.446h-2.671v2.273H4.444V3.182zm1.041-1.364C5.851.758 6.84 0 8 0s2.149.759 2.515 1.818h3.712c.979 0 1.773.817 1.773 1.81V18.19c0 1-.793 1.81-1.773 1.81H1.773C.794 20 0 19.183 0 18.19V3.628c0-1 .793-1.81 1.773-1.81h3.712zM8 3.636c.49 0 .889-.407.889-.909S8.49 1.818 8 1.818c-.49 0-.889.407-.889.91 0 .501.398.908.889.908zM3.556 7.273h8.888v1.363H3.556V7.273zm0 2.727h8.888v1.364H3.556V10zm0 2.727h8.888v1.364H3.556v-1.364z"
                              transform="translate(-605.000000, -358.000000) translate(559.000000, 304.000000) translate(29.000000, 49.000000) translate(17.000000, 5.000000)"/>
                    </g>
                </g>
            </g>
        </g>
    </g>
</svg>
