<svg width="13" height="19" viewBox="0 0 13 19" xmlns="http://www.w3.org/2000/svg">
    <g fill="#6E445A" fill-rule="nonzero">
        <ellipse cx="6.339" cy="5.681" rx="2.606" ry="2.719"/>
        <path d="M11.511 6.412c.039-.366.389-1.015.311-1.34-.039-.324-.505-.892-.622-1.217-.117-.325-.117-1.055-.311-1.34-.195-.283-.856-.567-1.089-.77C9.567 1.5 9.217.852 8.906.69 8.594.528 7.894.609 7.583.528 7.273.406 6.69 0 6.34 0s-.933.446-1.245.487c-.31.081-1.01 0-1.322.162-.31.163-.622.812-.894 1.055-.234.244-.934.487-1.09.771-.194.284-.194 1.015-.31 1.34-.117.324-.584.892-.622 1.217-.04.365.272 1.014.31 1.339.04.365-.116 1.055 0 1.38.117.324.7.73.895 1.014.195.284.35 1.015.622 1.218.234.243.973.324 1.245.487.31.162.778.73 1.089.811.31.081.972-.162 1.322-.162.35 0 1.011.243 1.322.162.311-.081.778-.65 1.089-.811.311-.163 1.011-.244 1.244-.487.234-.244.428-.934.623-1.218.194-.284.777-.69.894-1.014.117-.244-.039-.974 0-1.34zM6.34 9.577c-2.061 0-3.733-1.745-3.733-3.896 0-2.15 1.672-3.895 3.733-3.895s3.733 1.744 3.733 3.895c0 2.15-1.672 3.896-3.733 3.896z"/>
        <path d="M9.489 11.281c-.117.04-.272.081-.35.122-.039.04-.195.162-.272.243-.311.284-.623.568-1.011.65-.117.04-.234.04-.35.04-.273 0-.584-.08-.817-.122a1.392 1.392 0 0 0-.35-.08c-.039 0-.233.04-.35.08-.272.041-.545.122-.817.122-.116 0-.233 0-.35-.04-.389-.082-.7-.366-1.01-.65-.079-.08-.234-.203-.273-.243-.039-.04-.233-.081-.311-.122-.117-.04-.234-.081-.311-.081L0 16.962l2.606-1.217.544 2.922 3.189-6.412 3.15 6.412.544-2.922 2.606 1.217-2.8-5.803-.35.122z"/>
    </g>
</svg>
