<svg width="20" height="20" viewBox="0 0 20 20" xmlns="http://www.w3.org/2000/svg">
    <g fill="#000091" fill-rule="nonzero">
        <path d="M9.863 13.28a.852.852 0 0 1-.606-.248l-2.926-2.896a.847.847 0 0 1 0-1.199.868.868 0 0 1 1.212 0l2.32 2.296 2.32-2.296a.868.868 0 0 1 1.211 0 .847.847 0 0 1 0 1.199l-2.925 2.896a.852.852 0 0 1-.606.249z"/>
        <path d="M9.863 13.201a.859.859 0 0 1-.857-.848V.848c0-.463.388-.848.857-.848.468 0 .857.385.857.848v11.505a.859.859 0 0 1-.857.848z"/>
        <path d="M10 20c-5.886 0-10-4.072-10-9.898 0-.464.389-.849.857-.849.469 0 .857.385.857.849 0 4.83 3.406 8.201 8.286 8.201 4.88 0 8.286-3.37 8.286-8.201 0-.464.388-.849.857-.849.468 0 .857.385.857.849C20 15.928 15.886 20 10 20z"/>
    </g>
</svg>
