<svg width="20" height="18" viewBox="0 0 20 18" xmlns="http://www.w3.org/2000/svg">
    <g fill="#000" fill-rule="nonzero">
        <path d="M12.836 1.62A3.248 3.248 0 0 0 10 0a3.248 3.248 0 0 0-2.836 1.62L.444 13.139a3.179 3.179 0 0 0 0 3.241A3.249 3.249 0 0 0 3.28 18h13.44a3.248 3.248 0 0 0 2.836-1.62 3.178 3.178 0 0 0 0-3.242l-6.72-11.517zm5.517 14.072c-.34.584-.95.933-1.633.933H3.28a1.87 1.87 0 0 1-1.633-.933 1.83 1.83 0 0 1 0-1.866l6.72-11.518A1.871 1.871 0 0 1 10 1.375a1.87 1.87 0 0 1 1.633.933l6.72 11.518a1.83 1.83 0 0 1 0 1.866z"/>
        <path d="M9.937 5.72a.692.692 0 0 0-.632.749l.449 4.912c.01.116.103.21.224.222a.246.246 0 0 0 .268-.222l.449-4.912a.695.695 0 0 0-.758-.75zM10 12.814a.69.69 0 0 0-.695.687v.44c0 .379.311.687.695.687a.69.69 0 0 0 .694-.688v-.439a.691.691 0 0 0-.694-.687z"/>
    </g>
</svg>
