<svg width="200" height="149" viewBox="0 0 200 149" xmlns="http://www.w3.org/2000/svg">
    <g transform="translate(0 .001)" fill="none" fill-rule="evenodd">
        <path d="M191.617 44.151c4.63 0 8.383 3.758 8.383 8.393 0 4.635-3.753 8.392-8.383 8.392h-47.904c4.63 0 8.383 3.757 8.383 8.392s-3.753 8.393-8.383 8.393h26.347c4.63 0 8.383 3.757 8.383 8.392s-3.753 8.392-8.383 8.392h-12.184c-5.838 0-10.57 3.758-10.57 8.393 0 3.09 2.395 5.887 7.185 8.392 4.63 0 8.383 3.757 8.383 8.392s-3.753 8.393-8.383 8.393H55.09c-4.63 0-8.383-3.758-8.383-8.393 0-4.635 3.753-8.392 8.383-8.392H8.383c-4.63 0-8.383-3.757-8.383-8.392s3.753-8.393 8.383-8.393h47.904c4.63 0 8.384-3.757 8.384-8.392s-3.754-8.392-8.384-8.392h-29.94c-4.63 0-8.383-3.758-8.383-8.393 0-4.635 3.753-8.392 8.383-8.392h47.904c-4.63 0-8.383-3.757-8.383-8.392s3.754-8.393 8.383-8.393h117.366zm0 33.57c4.63 0 8.383 3.757 8.383 8.392s-3.753 8.392-8.383 8.392c-4.63 0-8.383-3.757-8.383-8.392s3.753-8.392 8.383-8.392z" fill="#E5E5F4"/>
        <path d="m127.745 42.958 11.15 81.337 1.002 8.16a4.793 4.793 0 0 1-4.17 5.344l-70.132 8.61a4.793 4.793 0 0 1-5.34-4.175L49.448 54.2a2.397 2.397 0 0 1 2.085-2.672l.025-.003 5.818-.652m4.705-.528 5.494-.616" stroke="#000091" stroke-width="3" fill="#FFF" stroke-linecap="round"/>
        <path d="m124.719 48.07 10.083 73.714.907 7.395c.292 2.382-1.377 4.548-3.729 4.837l-62.805 7.72c-2.351.289-4.494-1.408-4.787-3.79l-9.76-79.577a2.402 2.402 0 0 1 2.09-2.675l7.765-.955" fill="#E5E5F4"/>
        <path d="M130.807 27.668a3.3 3.3 0 0 1 2.334.967l16.096 16.103a3.3 3.3 0 0 1 .966 2.333v75.005a3.29 3.29 0 0 1-.967 2.333 3.29 3.29 0 0 1-2.333.967h-70.64a3.29 3.29 0 0 1-2.333-.967 3.29 3.29 0 0 1-.967-2.333V30.968c0-.912.37-1.737.967-2.334a3.29 3.29 0 0 1 2.333-.966z" stroke="#000091" stroke-width="3" fill="#FFF"/>
        <ellipse stroke="#EA5160" stroke-width="2.4" transform="rotate(-165 168.053 32.552)" cx="168.053" cy="32.552" rx="3.593" ry="3.596"/>
        <ellipse fill="#EA5160" transform="rotate(-165 137.152 4.404)" cx="137.152" cy="4.404" rx="3.593" ry="3.596"/>
        <path d="m152.596 15.056 12.263-7.089m-2.447 9.719-7.075-12.27M37.61 47.264l-7.186 7.193m0-7.193 7.185 7.193" stroke="#EA5160" stroke-width="3" stroke-linecap="round" stroke-linejoin="round"/>
        <ellipse fill="#EA5160" cx="46.707" cy="35.759" rx="3.593" ry="3.597"/>
        <path d="M131.344 29.048v13.904a3.595 3.595 0 0 0 3.592 3.597h9.502M85.835 46.55h31.137M85.835 60.935h51.497M85.835 76.522h51.497M85.835 92.108h51.497m-51.497 15.585h31.137" stroke="#000091" stroke-width="3" stroke-linecap="round" stroke-linejoin="round"/>
    </g>
</svg>
