<svg xmlns="http://www.w3.org/2000/svg" width="17" height="18" viewBox="0 0 17 18">
    <g fill="none" fill-rule="evenodd">
        <g fill="#000091" stroke="#000091" stroke-width=".2">
            <g>
                <g>
                    <g>
                        <path d="M.782 12c-.338-.585-.6-1.21-.782-1.861C.805 9.729 1.311 8.904 1.312 8c0-.903-.506-1.73-1.31-2.139.361-1.307 1.05-2.501 2-3.469.757.492 1.726.518 2.508.066.782-.451 1.244-1.303 1.196-2.205 1.314-.34 2.692-.339 4.005.002-.047.901.415 1.753 1.197 2.204.782.451 1.751.425 2.508-.067.463.472.874 1.009 1.22 1.608.346.599.605 1.223.782 1.86-.804.41-1.311 1.235-1.312 2.138 0 .903.506 1.73 1.31 2.139-.361 1.307-1.05 2.501-2 3.469-.757-.492-1.726-.518-2.508-.066-.782.451-1.244 1.303-1.196 2.205-1.314.34-2.692.339-4.005-.002.047-.901-.415-1.753-1.197-2.204-.782-.451-1.751-.425-2.508.067-.473-.482-.883-1.023-1.22-1.608zm4.527.156c.853.492 1.494 1.28 1.8 2.216.4.037.8.038 1.2 0 .306-.935.947-1.724 1.8-2.215.852-.493 1.856-.654 2.82-.452.231-.326.431-.674.597-1.038-.656-.733-1.019-1.683-1.018-2.667 0-1.008.376-1.95 1.018-2.667-.167-.364-.368-.711-.6-1.038-.962.202-1.966.041-2.817-.451-.853-.492-1.494-1.28-1.8-2.216-.4-.037-.8-.038-1.2 0-.306.935-.947 1.724-1.8 2.215-.852.493-1.856.654-2.819.452-.232.327-.432.674-.598 1.038C2.548 6.066 2.91 7.016 2.91 8c0 1.008-.376 1.95-1.018 2.667.167.364.368.711.6 1.038.962-.202 1.966-.041 2.817.451zm2.4-1.756c-1.325 0-2.4-1.075-2.4-2.4s1.075-2.4 2.4-2.4 2.4 1.075 2.4 2.4-1.075 2.4-2.4 2.4zm0-1.6c.442 0 .8-.358.8-.8 0-.442-.358-.8-.8-.8-.442 0-.8.358-.8.8 0 .442.358.8.8.8z"
                              transform="translate(-1098.000000, -360.000000) translate(1068.000000, 304.000000) translate(3.000000, 49.000000) translate(28.000000, 8.000000)"/>
                    </g>
                </g>
            </g>
        </g>
    </g>
</svg>
