<svg xmlns="http://www.w3.org/2000/svg" width="32" height="20" viewBox="0 0 32 20">
    <g fill="none" fill-rule="evenodd">
        <g fill="#000091">
            <g>
                <g>
                    <g>
                        <path d="M18.227 12.333c-.282-.487-.501-1.008-.652-1.55.67-.341 1.093-1.03 1.093-1.782 0-.753-.422-1.441-1.092-1.783.301-1.09.875-2.085 1.667-2.891.631.41 1.439.431 2.09.055.652-.376 1.038-1.087.998-1.838 1.094-.283 2.243-.282 3.338.001-.04.752.346 1.462.998 1.838.651.376 1.459.354 2.09-.056.386.393.728.84 1.016 1.34.289.499.505 1.02.652 1.55-.67.341-1.093 1.03-1.093 1.782 0 .753.422 1.441 1.092 1.783-.301 1.09-.875 2.085-1.667 2.891-.631-.41-1.439-.431-2.09-.055-.652.376-1.038 1.087-.998 1.838-1.094.283-2.243.282-3.338-.001.04-.752-.346-1.462-.998-1.838-.651-.376-1.459-.354-2.09.056-.394-.402-.735-.852-1.016-1.34zm3.773.131c.71.41 1.245 1.067 1.5 1.847.333.031.667.032 1 0 .255-.78.79-1.437 1.5-1.846.71-.411 1.547-.545 2.35-.377.193-.272.36-.562.499-.865-.547-.611-.85-1.403-.849-2.223 0-.84.313-1.625.849-2.223-.14-.303-.307-.593-.5-.865-.803.168-1.64.034-2.349-.376-.71-.41-1.245-1.067-1.5-1.847-.333-.031-.667-.032-1 0-.255.78-.79 1.437-1.5 1.846-.71.411-1.547.545-2.35.377-.193.272-.36.562-.499.865.547.611.85 1.403.849 2.223 0 .84-.313 1.625-.849 2.223.14.303.307.593.5.865.803-.168 1.64-.034 2.349.376zM24 11c-1.105 0-2-.895-2-2s.895-2 2-2 2 .895 2 2-.895 2-2 2zm0-1.333c.368 0 .667-.299.667-.667 0-.368-.299-.667-.667-.667-.368 0-.667.299-.667.667 0 .368.299.667.667.667z"
                              transform="translate(-869.000000, -359.000000) translate(804.000000, 304.000000) translate(45.000000, 49.000000) translate(21.000000, 7.000000)"/>
                        <g fill-rule="nonzero" stroke="#000091" stroke-width="1.2">
                            <path d="M6.772 8.321c-2.358 0-4.263-1.859-4.263-4.16C2.51 1.859 4.414 0 6.772 0c2.358 0 4.262 1.859 4.262 4.16 0 2.302-1.904 4.161-4.262 4.161zm0-7.436c-1.844 0-3.356 1.476-3.356 3.276 0 1.8 1.512 3.275 3.356 3.275 1.844 0 3.355-1.475 3.355-3.275 0-1.8-1.511-3.276-3.355-3.276z"
                                  transform="translate(-869.000000, -359.000000) translate(804.000000, 304.000000) translate(45.000000, 49.000000) translate(21.000000, 7.000000)"/>
                            <path d="M6.772 18C3.295 18 0 18 0 14.489c0-3.748 3.174-7.053 6.772-7.053 3.597 0 6.771 3.305 6.771 7.053C13.543 18 10.248 18 6.772 18zm0-9.679c-3.114 0-5.865 2.892-5.865 6.168 0 2.39 1.784 2.626 5.865 2.626 4.08 0 5.864-.236 5.864-2.626 0-3.276-2.75-6.168-5.864-6.168z"
                                  transform="translate(-869.000000, -359.000000) translate(804.000000, 304.000000) translate(45.000000, 49.000000) translate(21.000000, 7.000000)"/>
                        </g>
                    </g>
                </g>
            </g>
        </g>
    </g>
</svg>
