<?xml version="1.0" encoding="UTF-8"?>
<svg width="22px" height="23px" viewBox="0 0 22 23" version="1.1" xmlns="http://www.w3.org/2000/svg" xmlns:xlink="http://www.w3.org/1999/xlink">
    <title>Leçon</title>
    <g id="MENTOR" stroke="none" stroke-width="1" fill="none" fill-rule="evenodd">
        <g id="Mentor---FC---Thématique" transform="translate(-45.000000, -468.000000)" fill="#000091" fill-rule="nonzero">
            <g id="Group" transform="translate(45.000000, 468.000000)">
                <path d="M21.9463415,1.12325581 L21.9463415,0.0534883721 L0.0536585366,0.0534883721 L0.0536585366,1.12325581 L2.14634146,1.12325581 L2.14634146,13.0511628 L0.0536585366,13.0511628 L0.0536585366,14.1209302 L10.4634146,14.1209302 L10.4634146,17.7848837 L6.19756098,22.0104651 L6.97560976,22.7860465 L10.4634146,19.3093023 L10.4634146,22.9465116 L11.5365854,22.9465116 L11.5365854,19.2825581 L15.0243902,22.7593023 L15.7756098,22.0104651 L11.5365854,17.7848837 L11.5365854,14.1209302 L21.9463415,14.1209302 L21.9463415,13.0511628 L19.8804878,13.0511628 L19.8804878,1.12325581 L21.9463415,1.12325581 Z M18.8073171,13.0511628 L3.19268293,13.0511628 L3.19268293,1.12325581 L18.8073171,1.12325581 L18.8073171,13.0511628 Z"
                      id="Shape"></path>
                <rect id="Rectangle" x="5.95609756" y="3.79767442" width="4.18536585" height="1.06976744"></rect>
                <rect id="Rectangle" x="5.95609756" y="6.73953488" width="10.0878049" height="1.06976744"></rect>
                <rect id="Rectangle" x="5.95609756" y="9.68139535" width="10.0878049" height="1.06976744"></rect>
            </g>
        </g>
    </g>
</svg>