<svg xmlns="http://www.w3.org/2000/svg" width="14" height="19" viewBox="0 0 14 19">
    <g fill="none" fill-rule="evenodd">
        <g fill="#212529" fill-rule="nonzero">
            <path d="M1157.232 487.345v-10.867c0-.098-.032-.23-.064-.329v-.033c-.032-.033-.032-.066-.063-.132l-.032-.033c-.032-.032-.032-.065-.064-.098l-3.723-3.622s-.031-.033-.063-.033l-.064-.066c-.032 0-.032-.033-.064-.033-.031 0-.031-.033-.063-.033s-.064-.033-.096-.033c-.031 0-.031 0-.063-.033h-6.078c-.445 0-.795.362-.795.823v14.489c0 .461.35.823.795.823h9.641c.446.033.796-.33.796-.79zm-3.723-12.579l.923.89h-.923v-.89zm-5.918 11.756v-12.843h4.327v2.8c0 .46.35.823.796.823h2.927v9.22h-8.05zm2.164 3.655c0-.461.35-.823.795-.823h7.86v-8.364c0-.461.35-.824.795-.824.445 0 .795.363.795.824v9.187c0 .46-.35.823-.795.823h-8.655c-.414 0-.795-.362-.795-.823z"
                  transform="translate(-1146.000000, -472.000000)"/>
        </g>
    </g>
</svg>
