<svg id="SvgjsSvg1001" width="288" height="288" xmlns="http://www.w3.org/2000/svg" version="1.1" xmlns:xlink="http://www.w3.org/1999/xlink" xmlns:svgjs="http://svgjs.com/svgjs">
    <defs id="SvgjsDefs1002"></defs>
    <g id="SvgjsG1008" transform="matrix(0.9167,0,0,0.9167,11.995199404191965,11.995200000000011)">
        <svg xmlns="http://www.w3.org/2000/svg" width="288" height="288" overflow="visible" preserveAspectRatio="xMinYMid meet" viewBox="0 0 12 12">
            <path fill="#000091"
                  d="M11 4.5H5.3l2.1-2.1c.4-.4.4-1 0-1.4L6.7.3c-.4-.4-1-.4-1.4 0l-5 5c-.4.4-.4 1 0 1.4l.7.7 4.3 4.3c.4.4 1 .4 1.4 0l.7-.7c.4-.4.4-1 0-1.4L5.3 7.5H11c.5 0 1-.5 1-1v-1c0-.6-.5-1-1-1z"
                  class="color999 svgShape"></path>
        </svg>
    </g>
</svg>