<svg xmlns="http://www.w3.org/2000/svg" width="167" height="90" viewBox="0 0 167 90">
    <g fill="none" fill-rule="evenodd">
        <g>
            <g>
                <g>
                    <path fill="#F3F7FF" d="M160 10c3.866 0 7 3.134 7 7s-3.134 7-7 7h-40c3.866 0 7 3.134 7 7s-3.134 7-7 7h22c3.866 0 7 3.134 7 7s-3.134 7-7 7h-10.174c-4.874 0-8.826 3.134-8.826 7 0 2.577 2 4.91 6 7 3.866 0 7 3.134 7 7s-3.134 7-7 7H46c-3.866 0-7-3.134-7-7s3.134-7 7-7H7c-3.866 0-7-3.134-7-7s3.134-7 7-7h40c3.866 0 7-3.134 7-7s-3.134-7-7-7H22c-3.866 0-7-3.134-7-7s3.134-7 7-7h40c-3.866 0-7-3.134-7-7s3.134-7 7-7h98zm0 28c3.866 0 7 3.134 7 7s-3.134 7-7 7-7-3.134-7-7 3.134-7 7-7z" transform="translate(-557 -232) translate(315 234) translate(242)"/>
                    <path fill="#FFF" d="M71.119 58.307C71.04 58.86 71 59.425 71 60c0 6.627 5.373 12 12 12s12-5.373 12-12c0-.575-.04-1.14-.119-1.693H124V85c0 1.657-1.343 3-3 3H45c-1.657 0-3-1.343-3-3V58.307h29.119z" transform="translate(-557 -232) translate(315 234) translate(242)"/>
                    <path fill="#FFF" d="M96 58c0 7.18-5.82 13-13 13s-13-5.82-13-13c0-.233.006-.464.018-.693H42l9.56-28.268C51.973 27.82 53.116 27 54.402 27h57.196c1.286 0 2.43.82 2.842 2.039L124 57.307H95.982c.012.23.018.46.018.693z" transform="translate(-557 -232) translate(315 234) translate(242)"/>
                    <path fill="#E8F0FE" d="M94.098 58.955C94.098 64.502 89.129 70 83 70c-6.129 0-11.098-5.498-11.098-11.045 0-.18.006-1.359.016-1.536H51l8.161-19.844C59.513 36.634 60.49 36 61.587 36h42.826c1.098 0 2.074.634 2.426 1.575L115 57.42H94.082c.01.177.016 1.356.016 1.536z" transform="translate(-557 -232) translate(315 234) translate(242)"/>
                    <path stroke="#75A4FE" stroke-width="2.5" d="M111.598 28.25c.375 0 .73.12 1.02.328.29.209.517.506.637.861h0l9.495 28.073V84c0 .483-.196.92-.513 1.237-.316.317-.754.513-1.237.513h0-76c-.483 0-.92-.196-1.237-.513-.317-.316-.513-.754-.513-1.237h0V57.512l9.495-28.073c.12-.355.347-.652.637-.86.29-.21.645-.329 1.02-.329h0z" transform="translate(-557 -232) translate(315 234) translate(242)"/>
                    <path stroke="#75A4FE" stroke-linecap="round" stroke-linejoin="round" stroke-width="2.5" d="M48.574 57H51h-2.426zM56 57h12.745c1.876 0 1.876 1.319 1.876 2 0 6.627 5.496 12 12.276 12 6.78 0 12.276-5.373 12.276-12 0-.681 0-2 1.877-2H122" transform="translate(-557 -232) translate(315 234) translate(242)"/>
                    <path stroke="#A4C3FE" stroke-linecap="round" stroke-linejoin="round" stroke-width="2.5" d="M82.1 0v16.756M56 4.303l11.1 12.453m41-12.453L97 16.756" transform="translate(-557 -232) translate(315 234) translate(242)"/>
                </g>
            </g>
        </g>
    </g>
</svg>
