<svg xmlns="http://www.w3.org/2000/svg" width="20" height="22" viewBox="0 0 20 22">
    <g fill="none" fill-rule="evenodd">
        <g fill="#000091" fill-rule="nonzero" stroke="#000091" stroke-width=".4">
            <g>
                <path d="M12.788 11.074c-.778-.74-1.691-1.298-2.683-1.648 1.162-.937 1.926-2.492 1.926-4.25C12.03 2.322 10.02 0 7.55 0c-2.47 0-4.478 2.322-4.478 5.176 0 1.76.764 3.315 1.928 4.25C2.089 10.46 0 13.221 0 16.452c0 .376.308.683.69.683h7.662c.382 0 .69-.307.69-.683 0-.377-.308-.682-.69-.682H1.42c.343-3.045 2.963-5.419 6.133-5.419 1.603 0 3.124.605 4.279 1.706.276.261.71.252.975-.018.264-.271.258-.703-.018-.965zM4.453 5.176c0-2.101 1.39-3.812 3.099-3.812 1.707 0 3.098 1.71 3.098 3.812 0 2.101-1.391 3.811-3.098 3.811-1.71 0-3.099-1.71-3.099-3.811zM18 16.452c0 .376-.308.683-.69.683h-2.208v2.183c0 .375-.309.682-.69.682-.38 0-.69-.307-.69-.682v-2.183h-2.209c-.38 0-.69-.307-.69-.683 0-.377.31-.682.69-.682h2.209v-2.183c0-.377.31-.682.69-.682.382 0 .69.305.69.682v2.183h2.208c.382 0 .69.305.69.682z"
                      transform="translate(-1171.000000, -471.000000) translate(1172.000000, 472.000000)"/>
            </g>
        </g>
    </g>
</svg>
