<svg xmlns="http://www.w3.org/2000/svg" width="20" height="12" viewBox="0 0 20 12">
    <g fill="none" fill-rule="evenodd">
        <g fill="#000091" fill-rule="nonzero">
            <g>
                <path d="M6.453 11.512c2.319.65 4.803.65 7.122 0l2.125-.598c.58-.156.967-.65.967-1.222V6.545L11.67 7.95c-.552.156-1.132.234-1.739.234-.58 0-1.16-.078-1.74-.234L3.334 6.597v3.095c0 .572.387 1.066.967 1.222l2.153.598z"
                      transform="translate(-1196.000000, -528.000000) translate(1196.000000, 528.000000)"/>
                <path d="M19.576 2.622L11.279.179c-.835-.239-1.723-.239-2.558 0L.424 2.622c-.565.159-.565.982 0 1.141l8.297 2.442c.835.24 1.723.24 2.558 0l7.112-2.07v1.858c-.135.08-.243.212-.243.398v.505c0 .185.108.345.27.424l-.458 1.036c-.054.132.027.292.188.318l.458.053h.27l.457-.053c.162-.026.243-.16.189-.318l-.458-1.062c.162-.08.27-.24.27-.425v-.504c0-.16-.108-.319-.243-.399v-2.07l.485-.133c.565-.16.565-.982 0-1.141z"
                      transform="translate(-1196.000000, -528.000000) translate(1196.000000, 528.000000)"/>
            </g>
        </g>
    </g>
</svg>
