<svg xmlns="http://www.w3.org/2000/svg" width="34" height="18" viewBox="0 0 34 18">
    <g fill="none" fill-rule="evenodd">
        <g fill="#000091">
            <g>
                <g>
                    <g>
                        <g>
                            <path d="M1.227 10.333C.945 9.846.726 9.325.575 8.783c.67-.341 1.093-1.03 1.093-1.782 0-.753-.422-1.441-1.092-1.783.301-1.09.875-2.085 1.667-2.891.631.41 1.439.431 2.09.055.652-.376 1.038-1.087.998-1.838C6.425.261 7.574.262 8.669.545c-.04.752.346 1.462.998 1.838.651.376 1.459.354 2.09-.056.386.393.728.84 1.016 1.34.289.499.505 1.02.652 1.55-.67.341-1.093 1.03-1.093 1.782 0 .753.422 1.441 1.092 1.783-.301 1.09-.875 2.085-1.667 2.891-.631-.41-1.439-.431-2.09-.055-.652.376-1.038 1.087-.998 1.838-1.094.283-2.243.282-3.338-.001.04-.752-.346-1.462-.998-1.838-.651-.376-1.459-.354-2.09.056-.394-.402-.735-.852-1.016-1.34zM5 10.464c.71.41 1.245 1.067 1.5 1.847.333.031.667.032 1 0 .255-.78.79-1.437 1.5-1.846.71-.411 1.547-.545 2.35-.377.193-.272.36-.562.499-.865C11.302 8.612 10.999 7.82 11 7c0-.84.313-1.625.849-2.223-.14-.303-.307-.593-.5-.865-.803.168-1.64.034-2.349-.376-.71-.41-1.245-1.067-1.5-1.847-.333-.031-.667-.032-1 0-.255.78-.79 1.437-1.5 1.846-.71.411-1.547.545-2.35.377-.193.272-.36.562-.499.865.547.611.85 1.403.849 2.223 0 .84-.313 1.625-.849 2.223.14.303.307.593.5.865.803-.168 1.64-.034 2.349.376zM7 9c-1.105 0-2-.895-2-2s.895-2 2-2 2 .895 2 2-.895 2-2 2zm0-1.333c.368 0 .667-.299.667-.667 0-.368-.299-.667-.667-.667-.368 0-.667.299-.667.667 0 .368.299.667.667.667z"
                                  transform="translate(-359.000000, -360.000000) translate(295.000000, 304.000000) translate(45.000000, 49.000000) translate(19.000000, 7.000000) translate(20.000000, 2.000000)"/>
                        </g>
                        <g fill-rule="nonzero">
                            <path d="M9.846 4.91v10.61l-3.454-1.48-.648-.278-.649.278-3.454 1.48V4.91h8.205M13.128 0H4.915c-.903 0-1.633.736-1.633 1.636h8.205c.903 0 1.641.737 1.641 1.637v10.636l1.641.818V1.637c0-.9-.738-1.637-1.64-1.637zM9.846 3.273H1.641C.738 3.273 0 4.009 0 4.909V18l5.744-2.455L11.487 18V4.91c0-.9-.738-1.637-1.64-1.637z"
                                  transform="translate(-359.000000, -360.000000) translate(295.000000, 304.000000) translate(45.000000, 49.000000) translate(19.000000, 7.000000)"/>
                        </g>
                    </g>
                </g>
            </g>
        </g>
    </g>
</svg>
