<svg xmlns="http://www.w3.org/2000/svg" width="12" height="17" viewBox="0 0 12 17">
    <g fill="none" fill-rule="evenodd">
        <g fill="#000091" fill-rule="nonzero">
            <g>
                <g>
                    <path d="M11.232 15.345V4.478c0-.098-.032-.23-.064-.329v-.033c-.032-.033-.032-.066-.063-.132l-.032-.033c-.032-.032-.032-.065-.064-.098L7.286.23S7.255.198 7.223.198L7.159.132c-.032 0-.032-.033-.064-.033-.031 0-.031-.033-.063-.033S6.968.033 6.936.033c-.031 0-.031 0-.063-.033H.795C.35 0 0 .362 0 .823v14.489c0 .461.35.823.795.823h9.641c.446.033.796-.33.796-.79zM7.509 2.766l.923.89h-.923v-.89zM1.591 14.522V1.679h4.327v2.8c0 .46.35.823.796.823H9.64v9.22H1.59z"
                          transform="translate(-1113.000000, -471.000000) translate(1113.000000, 417.000000) translate(0.000000, 54.000000)"/>
                </g>
            </g>
        </g>
    </g>
</svg>
